<svg xmlns="http://www.w3.org/2000/svg" xmlns:xlink="http://www.w3.org/1999/xlink" width="500" zoomAndPan="magnify" viewBox="0 0 375 374.999991" height="500" preserveAspectRatio="xMidYMid meet" version="1.0"><defs><g/></defs><g fill="#000000" fill-opacity="1"><g transform="translate(7.743285, 224.826669)"><g><path d="M 52.671875 -17.75 C 52.671875 -16.3125 52.289062 -14.914062 51.53125 -13.5625 C 50.78125 -12.28125 49.007812 -10.769531 46.21875 -9.03125 C 43.4375 -7.300781 40.347656 -5.664062 36.953125 -4.125 C 33.566406 -2.582031 30.289062 -1.265625 27.125 -0.171875 C 23.957031 0.921875 21.625 1.46875 20.125 1.46875 C 19.0625 1.46875 17.8125 1.222656 16.375 0.734375 C 14.945312 0.242188 13.519531 -0.375 12.09375 -1.125 C 10.664062 -1.882812 9.363281 -2.753906 8.1875 -3.734375 C 7.019531 -4.710938 6.175781 -5.65625 5.65625 -6.5625 C 5.351562 -7.082031 5.066406 -8.132812 4.796875 -9.71875 C 4.535156 -11.300781 4.3125 -13.144531 4.125 -15.25 C 3.9375 -17.363281 3.765625 -19.609375 3.609375 -21.984375 C 3.460938 -24.359375 3.332031 -26.617188 3.21875 -28.765625 C 3.101562 -30.910156 3.023438 -32.8125 2.984375 -34.46875 C 2.953125 -36.125 2.9375 -37.332031 2.9375 -38.09375 C 2.9375 -40.875 3.03125 -44.070312 3.21875 -47.6875 C 3.40625 -51.3125 3.765625 -54.945312 4.296875 -58.59375 C 4.828125 -62.25 5.597656 -65.753906 6.609375 -69.109375 C 7.628906 -72.460938 9.003906 -75.304688 10.734375 -77.640625 C 11.265625 -78.316406 12.320312 -79.03125 13.90625 -79.78125 C 15.488281 -80.539062 17.351562 -81.257812 19.5 -81.9375 C 21.644531 -82.613281 23.957031 -83.253906 26.4375 -83.859375 C 28.925781 -84.460938 31.320312 -84.972656 33.625 -85.390625 C 35.925781 -85.804688 38.015625 -86.144531 39.890625 -86.40625 C 41.773438 -86.664062 43.207031 -86.796875 44.1875 -86.796875 C 45.320312 -86.796875 46.394531 -86.550781 47.40625 -86.0625 C 48.425781 -85.570312 49.289062 -84.910156 50 -84.078125 C 50.71875 -83.253906 51.285156 -82.332031 51.703125 -81.3125 C 52.117188 -80.300781 52.328125 -79.226562 52.328125 -78.09375 C 52.328125 -77.113281 52.191406 -76.285156 51.921875 -75.609375 C 51.660156 -74.929688 51.269531 -74.175781 50.75 -73.34375 C 49.988281 -72.363281 48.40625 -71.195312 46 -69.84375 C 43.59375 -68.488281 40.972656 -67.148438 38.140625 -65.828125 C 35.316406 -64.515625 32.601562 -63.328125 30 -62.265625 C 27.40625 -61.210938 25.582031 -60.460938 24.53125 -60.015625 C 24.226562 -58.285156 23.90625 -56.535156 23.5625 -54.765625 C 23.226562 -52.992188 22.984375 -51.203125 22.828125 -49.390625 C 25.160156 -50.597656 27.796875 -51.726562 30.734375 -52.78125 C 33.679688 -53.832031 36.472656 -54.359375 39.109375 -54.359375 C 44.453125 -54.359375 47.125 -51.722656 47.125 -46.453125 C 47.125 -45.171875 46.878906 -44.039062 46.390625 -43.0625 C 45.898438 -42.082031 45.257812 -41.210938 44.46875 -40.453125 C 43.675781 -39.703125 42.769531 -39.046875 41.75 -38.484375 C 40.738281 -37.921875 39.742188 -37.375 38.765625 -36.84375 C 36.359375 -35.5625 33.832031 -34.445312 31.1875 -33.5 C 28.550781 -32.5625 25.914062 -31.640625 23.28125 -30.734375 C 23.132812 -30.140625 22.984375 -29.484375 22.828125 -28.765625 C 22.679688 -28.046875 22.609375 -27.347656 22.609375 -26.671875 C 22.609375 -25.617188 22.679688 -24.5625 22.828125 -23.5 C 22.984375 -22.445312 23.132812 -21.394531 23.28125 -20.34375 C 24.1875 -20.644531 25.632812 -21.132812 27.625 -21.8125 C 29.625 -22.488281 31.71875 -23.164062 33.90625 -23.84375 C 36.09375 -24.519531 38.203125 -25.101562 40.234375 -25.59375 C 42.265625 -26.082031 43.769531 -26.328125 44.75 -26.328125 C 45.882812 -26.328125 46.941406 -26.082031 47.921875 -25.59375 C 48.898438 -25.101562 49.726562 -24.460938 50.40625 -23.671875 C 51.082031 -22.878906 51.628906 -21.957031 52.046875 -20.90625 C 52.460938 -19.851562 52.671875 -18.800781 52.671875 -17.75 Z M 52.671875 -17.75 "/></g></g></g><g fill="#000000" fill-opacity="1"><g transform="translate(62.101712, 224.826669)"><g><path d="M 55.953125 -52.5625 C 55.347656 -47.050781 54.742188 -41.582031 54.140625 -36.15625 C 53.535156 -30.738281 53.117188 -25.316406 52.890625 -19.890625 C 52.515625 -13.640625 52.363281 -7.722656 52.4375 -2.140625 C 52.519531 3.429688 52.5625 9.34375 52.5625 15.59375 C 52.5625 17.101562 52.539062 18.945312 52.5 21.125 C 52.457031 23.3125 52.171875 25.421875 51.640625 27.453125 C 51.117188 29.492188 50.273438 31.226562 49.109375 32.65625 C 47.941406 34.09375 46.191406 34.8125 43.859375 34.8125 C 42.722656 34.8125 41.757812 34.472656 40.96875 33.796875 C 40.175781 33.117188 39.5 32.234375 38.9375 31.140625 C 38.375 30.046875 37.921875 28.820312 37.578125 27.46875 C 37.242188 26.113281 36.960938 24.71875 36.734375 23.28125 C 36.359375 20.34375 36.148438 17.421875 36.109375 14.515625 C 36.066406 11.617188 36.046875 9.492188 36.046875 8.140625 L 36.046875 -7 C 34.316406 -4.738281 32.078125 -3.023438 29.328125 -1.859375 C 26.578125 -0.691406 23.847656 -0.109375 21.140625 -0.109375 C 17.742188 -0.109375 14.820312 -0.914062 12.375 -2.53125 C 9.925781 -4.15625 7.910156 -6.226562 6.328125 -8.75 C 4.742188 -11.28125 3.578125 -14.050781 2.828125 -17.0625 C 2.078125 -20.082031 1.703125 -23.019531 1.703125 -25.875 L 1.703125 -26.5625 C 1.703125 -30.476562 2.300781 -34.710938 3.5 -39.265625 C 4.707031 -43.828125 6.5 -48.066406 8.875 -51.984375 C 11.25 -55.910156 14.222656 -59.171875 17.796875 -61.765625 C 21.378906 -64.367188 25.546875 -65.671875 30.296875 -65.671875 C 32.847656 -65.671875 35.195312 -65.140625 37.34375 -64.078125 C 39.5 -63.023438 41.03125 -61.296875 41.9375 -58.890625 C 42.53125 -60.617188 43.445312 -62.03125 44.6875 -63.125 C 45.9375 -64.21875 47.539062 -64.765625 49.5 -64.765625 C 51.988281 -64.765625 53.738281 -63.953125 54.75 -62.328125 C 55.769531 -60.710938 56.28125 -58.925781 56.28125 -56.96875 C 56.28125 -56.132812 56.242188 -55.378906 56.171875 -54.703125 C 56.097656 -54.023438 56.023438 -53.3125 55.953125 -52.5625 Z M 29.953125 -49.84375 C 28.210938 -49.84375 26.585938 -49.144531 25.078125 -47.75 C 23.578125 -46.351562 22.257812 -44.65625 21.125 -42.65625 C 20 -40.664062 19.113281 -38.539062 18.46875 -36.28125 C 17.832031 -34.019531 17.515625 -32.023438 17.515625 -30.296875 C 17.515625 -29.234375 17.609375 -28.097656 17.796875 -26.890625 C 17.984375 -25.691406 18.285156 -24.546875 18.703125 -23.453125 C 19.117188 -22.359375 19.679688 -21.453125 20.390625 -20.734375 C 21.109375 -20.023438 22.035156 -19.671875 23.171875 -19.671875 C 24.148438 -19.671875 25.296875 -19.914062 26.609375 -20.40625 C 27.929688 -20.894531 29.234375 -21.535156 30.515625 -22.328125 C 31.796875 -23.117188 32.925781 -24.003906 33.90625 -24.984375 C 34.882812 -25.960938 35.5625 -26.898438 35.9375 -27.796875 C 36.164062 -28.328125 36.351562 -29.117188 36.5 -30.171875 C 36.65625 -31.234375 36.789062 -32.347656 36.90625 -33.515625 C 37.019531 -34.679688 37.113281 -35.828125 37.1875 -36.953125 C 37.257812 -38.085938 37.296875 -38.957031 37.296875 -39.5625 C 37.296875 -40.457031 37.085938 -41.488281 36.671875 -42.65625 C 36.253906 -43.832031 35.707031 -44.960938 35.03125 -46.046875 C 34.351562 -47.140625 33.5625 -48.046875 32.65625 -48.765625 C 31.757812 -49.484375 30.859375 -49.84375 29.953125 -49.84375 Z M 29.953125 -49.84375 "/></g></g></g><g fill="#000000" fill-opacity="1"><g transform="translate(120.076501, 224.826669)"><g><path d="M 52.890625 -32.328125 C 52.890625 -28.179688 52.472656 -24.070312 51.640625 -20 C 50.816406 -15.9375 49.425781 -12.300781 47.46875 -9.09375 C 45.507812 -5.894531 42.890625 -3.316406 39.609375 -1.359375 C 36.335938 0.597656 32.25 1.578125 27.34375 1.578125 C 22.53125 1.578125 18.5 0.617188 15.25 -1.296875 C 12.007812 -3.222656 9.429688 -5.765625 7.515625 -8.921875 C 5.597656 -12.085938 4.242188 -15.664062 3.453125 -19.65625 C 2.660156 -23.65625 2.265625 -27.726562 2.265625 -31.875 C 2.265625 -36.394531 2.789062 -40.878906 3.84375 -45.328125 C 4.070312 -46.523438 4.503906 -48.195312 5.140625 -50.34375 C 5.785156 -52.5 6.613281 -54.609375 7.625 -56.671875 C 8.644531 -58.742188 9.8125 -60.535156 11.125 -62.046875 C 12.445312 -63.554688 13.898438 -64.3125 15.484375 -64.3125 C 16.992188 -64.3125 18.195312 -63.894531 19.09375 -63.0625 C 20 -62.238281 20.71875 -61.203125 21.25 -59.953125 C 21.78125 -58.710938 22.117188 -57.394531 22.265625 -56 C 22.410156 -54.601562 22.484375 -53.34375 22.484375 -52.21875 C 22.484375 -50.476562 22.351562 -48.78125 22.09375 -47.125 C 21.832031 -45.46875 21.550781 -43.8125 21.25 -42.15625 C 20.945312 -39.894531 20.660156 -37.632812 20.390625 -35.375 C 20.128906 -33.113281 20 -30.851562 20 -28.59375 C 20 -27.46875 20.054688 -26.207031 20.171875 -24.8125 C 20.285156 -23.414062 20.566406 -22.078125 21.015625 -20.796875 C 21.472656 -19.515625 22.113281 -18.441406 22.9375 -17.578125 C 23.769531 -16.710938 24.941406 -16.28125 26.453125 -16.28125 C 28.410156 -16.28125 29.972656 -16.804688 31.140625 -17.859375 C 32.304688 -18.910156 33.171875 -20.226562 33.734375 -21.8125 C 34.296875 -23.394531 34.648438 -25.085938 34.796875 -26.890625 C 34.953125 -28.703125 35.03125 -30.363281 35.03125 -31.875 C 35.03125 -35.1875 34.804688 -38.441406 34.359375 -41.640625 C 33.910156 -44.847656 33.492188 -48.109375 33.109375 -51.421875 C 33.035156 -51.796875 33 -52.320312 33 -53 C 33 -54.132812 33.1875 -55.265625 33.5625 -56.390625 C 33.9375 -57.523438 34.460938 -58.546875 35.140625 -59.453125 C 35.828125 -60.359375 36.660156 -61.09375 37.640625 -61.65625 C 38.617188 -62.21875 39.707031 -62.5 40.90625 -62.5 C 42.570312 -62.5 44.046875 -61.914062 45.328125 -60.75 C 46.609375 -59.582031 47.679688 -58.070312 48.546875 -56.21875 C 49.410156 -54.375 50.125 -52.300781 50.6875 -50 C 51.25 -47.707031 51.703125 -45.445312 52.046875 -43.21875 C 52.390625 -41 52.613281 -38.910156 52.71875 -36.953125 C 52.832031 -34.992188 52.890625 -33.453125 52.890625 -32.328125 Z M 52.890625 -32.328125 "/></g></g></g><g fill="#000000" fill-opacity="1"><g transform="translate(176.469131, 224.826669)"><g><path d="M 22.046875 -78.890625 C 22.046875 -77.835938 21.757812 -76.894531 21.1875 -76.0625 C 20.625 -75.238281 19.890625 -74.503906 18.984375 -73.859375 C 18.078125 -73.222656 17.097656 -72.734375 16.046875 -72.390625 C 14.992188 -72.046875 14.015625 -71.875 13.109375 -71.875 C 11.597656 -71.875 10.273438 -72.25 9.140625 -73 C 8.015625 -73.757812 7.453125 -74.929688 7.453125 -76.515625 C 7.453125 -77.648438 7.734375 -78.648438 8.296875 -79.515625 C 8.867188 -80.378906 9.566406 -81.09375 10.390625 -81.65625 C 11.222656 -82.21875 12.164062 -82.648438 13.21875 -82.953125 C 14.28125 -83.253906 15.300781 -83.40625 16.28125 -83.40625 C 17.707031 -83.40625 19.023438 -83.066406 20.234375 -82.390625 C 21.441406 -81.710938 22.046875 -80.546875 22.046875 -78.890625 Z M 22.9375 -40.46875 C 22.9375 -39.40625 22.9375 -38.289062 22.9375 -37.125 C 22.9375 -35.957031 22.898438 -34.847656 22.828125 -33.796875 C 22.753906 -32.515625 22.71875 -30.800781 22.71875 -28.65625 C 22.71875 -26.507812 22.640625 -24.191406 22.484375 -21.703125 C 22.335938 -19.210938 22.09375 -16.6875 21.75 -14.125 C 21.414062 -11.5625 20.867188 -9.222656 20.109375 -7.109375 C 19.359375 -5.003906 18.363281 -3.289062 17.125 -1.96875 C 15.882812 -0.65625 14.320312 0.0351562 12.4375 0.109375 C 11 0.179688 9.789062 -0.378906 8.8125 -1.578125 C 7.832031 -2.785156 7.019531 -4.347656 6.375 -6.265625 C 5.738281 -8.191406 5.269531 -10.34375 4.96875 -12.71875 C 4.664062 -15.09375 4.4375 -17.390625 4.28125 -19.609375 C 4.132812 -21.828125 4.0625 -23.878906 4.0625 -25.765625 C 4.0625 -27.648438 4.0625 -29.046875 4.0625 -29.953125 C 4.0625 -31.160156 4.0625 -32.875 4.0625 -35.09375 C 4.0625 -37.3125 4.132812 -39.703125 4.28125 -42.265625 C 4.4375 -44.828125 4.722656 -47.425781 5.140625 -50.0625 C 5.554688 -52.707031 6.160156 -55.117188 6.953125 -57.296875 C 7.742188 -59.484375 8.78125 -61.253906 10.0625 -62.609375 C 11.34375 -63.972656 12.960938 -64.65625 14.921875 -64.65625 C 16.953125 -64.65625 18.492188 -63.632812 19.546875 -61.59375 C 20.609375 -59.5625 21.398438 -57.1875 21.921875 -54.46875 C 22.453125 -51.757812 22.753906 -49.066406 22.828125 -46.390625 C 22.898438 -43.722656 22.9375 -41.75 22.9375 -40.46875 Z M 22.9375 -40.46875 "/></g></g></g><g fill="#000000" fill-opacity="1"><g transform="translate(204.043884, 224.826669)"><g><path d="M 56.84375 -37.296875 C 56.84375 -35.109375 56.671875 -32.640625 56.328125 -29.890625 C 55.992188 -27.140625 55.46875 -24.332031 54.75 -21.46875 C 54.039062 -18.601562 53.101562 -15.816406 51.9375 -13.109375 C 50.769531 -10.398438 49.335938 -7.96875 47.640625 -5.8125 C 45.941406 -3.664062 43.976562 -1.953125 41.75 -0.671875 C 39.53125 0.609375 36.953125 1.25 34.015625 1.25 C 30.929688 1.25 28.125 0.535156 25.59375 -0.890625 C 23.070312 -2.328125 20.90625 -4.289062 19.09375 -6.78125 C 18.875 -4.75 18.046875 -2.957031 16.609375 -1.40625 C 15.179688 0.132812 13.375 0.90625 11.1875 0.90625 C 9.90625 0.90625 8.832031 0.265625 7.96875 -1.015625 C 7.101562 -2.296875 6.40625 -3.929688 5.875 -5.921875 C 5.351562 -7.921875 4.957031 -10.125 4.6875 -12.53125 C 4.425781 -14.945312 4.253906 -17.285156 4.171875 -19.546875 C 4.097656 -21.804688 4.0625 -23.84375 4.0625 -25.65625 C 4.0625 -27.46875 4.0625 -28.75 4.0625 -29.5 C 4.0625 -32.0625 4.082031 -34.625 4.125 -37.1875 C 4.164062 -39.75 4.222656 -42.347656 4.296875 -44.984375 C 4.296875 -46.265625 4.273438 -48.1875 4.234375 -50.75 C 4.203125 -53.3125 4.222656 -56.15625 4.296875 -59.28125 C 4.367188 -62.40625 4.535156 -65.601562 4.796875 -68.875 C 5.066406 -72.15625 5.539062 -75.148438 6.21875 -77.859375 C 6.894531 -80.578125 7.832031 -82.800781 9.03125 -84.53125 C 10.238281 -86.269531 11.785156 -87.175781 13.671875 -87.25 C 15.179688 -87.25 16.460938 -86.722656 17.515625 -85.671875 C 18.566406 -84.617188 19.453125 -83.222656 20.171875 -81.484375 C 20.890625 -79.753906 21.453125 -77.816406 21.859375 -75.671875 C 22.273438 -73.523438 22.578125 -71.375 22.765625 -69.21875 C 22.960938 -67.070312 23.078125 -65.035156 23.109375 -63.109375 C 23.148438 -61.191406 23.171875 -59.632812 23.171875 -58.4375 C 23.171875 -58.207031 23.148438 -57.695312 23.109375 -56.90625 C 23.078125 -56.113281 23.0625 -55.265625 23.0625 -54.359375 C 23.0625 -53.453125 23.0625 -52.640625 23.0625 -51.921875 C 23.0625 -51.210938 23.0625 -50.820312 23.0625 -50.75 C 23.738281 -52.175781 24.71875 -53.566406 26 -54.921875 C 27.28125 -56.285156 28.707031 -57.492188 30.28125 -58.546875 C 31.863281 -59.597656 33.519531 -60.460938 35.25 -61.140625 C 36.988281 -61.816406 38.648438 -62.15625 40.234375 -62.15625 C 43.398438 -62.15625 46.054688 -61.34375 48.203125 -59.71875 C 50.347656 -58.101562 52.0625 -56.050781 53.34375 -53.5625 C 54.625 -51.082031 55.523438 -48.390625 56.046875 -45.484375 C 56.578125 -42.585938 56.84375 -39.859375 56.84375 -37.296875 Z M 40.234375 -33.90625 C 40.234375 -34.8125 40.175781 -35.789062 40.0625 -36.84375 C 39.945312 -37.894531 39.679688 -38.875 39.265625 -39.78125 C 38.859375 -40.6875 38.296875 -41.441406 37.578125 -42.046875 C 36.859375 -42.648438 35.9375 -42.953125 34.8125 -42.953125 C 33.601562 -42.953125 32.414062 -42.6875 31.25 -42.15625 C 30.082031 -41.625 28.96875 -40.941406 27.90625 -40.109375 C 26.851562 -39.285156 25.875 -38.398438 24.96875 -37.453125 C 24.070312 -36.515625 23.285156 -35.597656 22.609375 -34.703125 L 21.46875 -24.640625 C 22.675781 -22.910156 24.144531 -21.535156 25.875 -20.515625 C 27.613281 -19.492188 29.578125 -18.984375 31.765625 -18.984375 C 33.421875 -18.984375 34.789062 -19.507812 35.875 -20.5625 C 36.96875 -21.625 37.832031 -22.925781 38.46875 -24.46875 C 39.113281 -26.007812 39.566406 -27.644531 39.828125 -29.375 C 40.097656 -31.113281 40.234375 -32.625 40.234375 -33.90625 Z M 40.234375 -33.90625 "/></g></g></g><g fill="#000000" fill-opacity="1"><g transform="translate(264.39191, 224.826669)"><g><path d="M 24.859375 3.28125 C 21.015625 3.28125 17.660156 2.257812 14.796875 0.21875 C 11.941406 -1.8125 9.535156 -4.40625 7.578125 -7.5625 C 5.617188 -10.726562 4.148438 -14.25 3.171875 -18.125 C 2.191406 -22.007812 1.703125 -25.835938 1.703125 -29.609375 C 1.703125 -33.609375 2.191406 -37.734375 3.171875 -41.984375 C 4.148438 -46.242188 5.65625 -50.125 7.6875 -53.625 C 9.71875 -57.132812 12.316406 -60 15.484375 -62.21875 C 18.648438 -64.4375 22.414062 -65.546875 26.78125 -65.546875 C 31 -65.546875 34.597656 -64.394531 37.578125 -62.09375 C 40.554688 -59.800781 42.945312 -56.941406 44.75 -53.515625 C 46.5625 -50.085938 47.84375 -46.335938 48.59375 -42.265625 C 49.351562 -38.203125 49.617188 -34.359375 49.390625 -30.734375 C 49.160156 -26.742188 48.535156 -22.710938 47.515625 -18.640625 C 46.503906 -14.578125 45.019531 -10.925781 43.0625 -7.6875 C 41.101562 -4.445312 38.613281 -1.8125 35.59375 0.21875 C 32.582031 2.257812 29.003906 3.28125 24.859375 3.28125 Z M 26 -47.8125 C 24.863281 -47.8125 23.863281 -47.207031 23 -46 C 22.132812 -44.789062 21.414062 -43.320312 20.84375 -41.59375 C 20.28125 -39.863281 19.847656 -38.035156 19.546875 -36.109375 C 19.242188 -34.191406 19.09375 -32.515625 19.09375 -31.078125 C 19.09375 -29.273438 19.265625 -27.316406 19.609375 -25.203125 C 19.953125 -23.097656 20.421875 -21.160156 21.015625 -19.390625 C 21.617188 -17.617188 22.351562 -16.144531 23.21875 -14.96875 C 24.09375 -13.800781 25.09375 -13.21875 26.21875 -13.21875 C 27.425781 -13.21875 28.460938 -13.78125 29.328125 -14.90625 C 30.191406 -16.039062 30.890625 -17.472656 31.421875 -19.203125 C 31.953125 -20.941406 32.328125 -22.847656 32.546875 -24.921875 C 32.773438 -26.992188 32.890625 -28.929688 32.890625 -30.734375 C 32.890625 -32.398438 32.738281 -34.226562 32.4375 -36.21875 C 32.132812 -38.21875 31.703125 -40.082031 31.140625 -41.8125 C 30.578125 -43.550781 29.859375 -44.984375 28.984375 -46.109375 C 28.117188 -47.242188 27.125 -47.8125 26 -47.8125 Z M 26 -47.8125 "/></g></g></g><g fill="#000000" fill-opacity="1"><g transform="translate(316.151077, 224.826669)"><g><path d="M 51.078125 -58.3125 C 51.078125 -57.113281 50.851562 -55.851562 50.40625 -54.53125 C 49.957031 -53.21875 49.390625 -51.878906 48.703125 -50.515625 C 48.023438 -49.160156 47.3125 -47.859375 46.5625 -46.609375 C 45.8125 -45.367188 45.132812 -44.222656 44.53125 -43.171875 C 43.019531 -40.765625 41.53125 -38.316406 40.0625 -35.828125 C 38.59375 -33.335938 37.109375 -30.890625 35.609375 -28.484375 C 36.285156 -27.429688 37.222656 -25.960938 38.421875 -24.078125 C 39.628906 -22.191406 40.816406 -20.210938 41.984375 -18.140625 C 43.148438 -16.066406 44.144531 -14.007812 44.96875 -11.96875 C 45.800781 -9.9375 46.21875 -8.207031 46.21875 -6.78125 C 46.21875 -5.425781 45.691406 -4.109375 44.640625 -2.828125 C 43.585938 -1.546875 42.304688 -0.90625 40.796875 -0.90625 C 39.210938 -0.90625 37.609375 -1.46875 35.984375 -2.59375 C 34.367188 -3.726562 32.789062 -5.066406 31.25 -6.609375 C 29.707031 -8.148438 28.296875 -9.769531 27.015625 -11.46875 C 25.734375 -13.164062 24.640625 -14.578125 23.734375 -15.703125 C 22.753906 -14.648438 21.488281 -13.21875 19.9375 -11.40625 C 18.394531 -9.601562 16.738281 -7.832031 14.96875 -6.09375 C 13.195312 -4.363281 11.445312 -2.878906 9.71875 -1.640625 C 7.988281 -0.398438 6.445312 0.21875 5.09375 0.21875 C 3.507812 0.21875 2.265625 -0.34375 1.359375 -1.46875 C 0.453125 -2.601562 0 -3.921875 0 -5.421875 C 0 -6.929688 0.503906 -8.851562 1.515625 -11.1875 C 2.535156 -13.519531 3.742188 -15.929688 5.140625 -18.421875 C 6.535156 -20.910156 7.929688 -23.285156 9.328125 -25.546875 C 10.722656 -27.804688 11.796875 -29.578125 12.546875 -30.859375 C 11.796875 -32.210938 10.851562 -34 9.71875 -36.21875 C 8.59375 -38.445312 7.519531 -40.785156 6.5 -43.234375 C 5.476562 -45.679688 4.609375 -48.09375 3.890625 -50.46875 C 3.179688 -52.84375 2.828125 -54.816406 2.828125 -56.390625 C 2.828125 -58.128906 3.351562 -59.523438 4.40625 -60.578125 C 5.457031 -61.628906 6.851562 -62.15625 8.59375 -62.15625 C 10.476562 -62.15625 12.25 -61.421875 13.90625 -59.953125 C 15.5625 -58.484375 17.101562 -56.710938 18.53125 -54.640625 C 19.96875 -52.566406 21.226562 -50.421875 22.3125 -48.203125 C 23.40625 -45.984375 24.296875 -44.15625 24.984375 -42.71875 C 25.878906 -44.070312 27.132812 -45.914062 28.75 -48.25 C 30.375 -50.59375 32.203125 -52.894531 34.234375 -55.15625 C 36.273438 -57.414062 38.390625 -59.375 40.578125 -61.03125 C 42.765625 -62.6875 44.835938 -63.515625 46.796875 -63.515625 C 48.078125 -63.515625 49.109375 -62.96875 49.890625 -61.875 C 50.679688 -60.78125 51.078125 -59.59375 51.078125 -58.3125 Z M 51.078125 -58.3125 "/></g></g></g></svg>