<svg xmlns="http://www.w3.org/2000/svg" xmlns:xlink="http://www.w3.org/1999/xlink" width="191" zoomAndPan="magnify" viewBox="0 0 143.25 68.249996" height="91" preserveAspectRatio="xMidYMid meet" version="1.0"><defs><g/></defs><g fill="#ffffff" fill-opacity="1"><g transform="translate(10.722833, 46.121613)"><g><path d="M 17.71875 -5.96875 C 17.71875 -5.488281 17.585938 -5.019531 17.328125 -4.5625 C 17.078125 -4.132812 16.484375 -3.628906 15.546875 -3.046875 C 14.609375 -2.460938 13.566406 -1.910156 12.421875 -1.390625 C 11.285156 -0.867188 10.1875 -0.421875 9.125 -0.046875 C 8.0625 0.316406 7.273438 0.5 6.765625 0.5 C 6.410156 0.5 5.992188 0.414062 5.515625 0.25 C 5.035156 0.0820312 4.550781 -0.125 4.0625 -0.375 C 3.582031 -0.632812 3.144531 -0.925781 2.75 -1.25 C 2.363281 -1.582031 2.082031 -1.898438 1.90625 -2.203125 C 1.800781 -2.378906 1.703125 -2.734375 1.609375 -3.265625 C 1.523438 -3.796875 1.453125 -4.414062 1.390625 -5.125 C 1.328125 -5.84375 1.269531 -6.597656 1.21875 -7.390625 C 1.164062 -8.191406 1.117188 -8.953125 1.078125 -9.671875 C 1.046875 -10.390625 1.019531 -11.023438 1 -11.578125 C 0.988281 -12.140625 0.984375 -12.550781 0.984375 -12.8125 C 0.984375 -13.75 1.015625 -14.820312 1.078125 -16.03125 C 1.140625 -17.25 1.257812 -18.472656 1.4375 -19.703125 C 1.613281 -20.929688 1.875 -22.109375 2.21875 -23.234375 C 2.5625 -24.367188 3.023438 -25.328125 3.609375 -26.109375 C 3.785156 -26.335938 4.140625 -26.578125 4.671875 -26.828125 C 5.203125 -27.085938 5.828125 -27.332031 6.546875 -27.5625 C 7.273438 -27.789062 8.054688 -28.003906 8.890625 -28.203125 C 9.734375 -28.398438 10.539062 -28.566406 11.3125 -28.703125 C 12.082031 -28.847656 12.785156 -28.960938 13.421875 -29.046875 C 14.054688 -29.140625 14.535156 -29.1875 14.859375 -29.1875 C 15.242188 -29.1875 15.601562 -29.101562 15.9375 -28.9375 C 16.28125 -28.78125 16.570312 -28.5625 16.8125 -28.28125 C 17.0625 -28 17.253906 -27.6875 17.390625 -27.34375 C 17.523438 -27 17.59375 -26.640625 17.59375 -26.265625 C 17.59375 -25.929688 17.546875 -25.648438 17.453125 -25.421875 C 17.367188 -25.203125 17.238281 -24.953125 17.0625 -24.671875 C 16.8125 -24.335938 16.28125 -23.941406 15.46875 -23.484375 C 14.65625 -23.035156 13.773438 -22.585938 12.828125 -22.140625 C 11.878906 -21.691406 10.96875 -21.289062 10.09375 -20.9375 C 9.21875 -20.582031 8.601562 -20.332031 8.25 -20.1875 C 8.144531 -19.601562 8.035156 -19.007812 7.921875 -18.40625 C 7.804688 -17.8125 7.722656 -17.210938 7.671875 -16.609375 C 8.460938 -17.015625 9.351562 -17.394531 10.34375 -17.75 C 11.332031 -18.101562 12.269531 -18.28125 13.15625 -18.28125 C 14.945312 -18.28125 15.84375 -17.394531 15.84375 -15.625 C 15.84375 -15.1875 15.757812 -14.800781 15.59375 -14.46875 C 15.4375 -14.144531 15.222656 -13.859375 14.953125 -13.609375 C 14.691406 -13.359375 14.390625 -13.132812 14.046875 -12.9375 C 13.703125 -12.75 13.363281 -12.566406 13.03125 -12.390625 C 12.226562 -11.960938 11.378906 -11.585938 10.484375 -11.265625 C 9.597656 -10.953125 8.710938 -10.644531 7.828125 -10.34375 C 7.773438 -10.132812 7.722656 -9.910156 7.671875 -9.671875 C 7.628906 -9.429688 7.609375 -9.195312 7.609375 -8.96875 C 7.609375 -8.613281 7.628906 -8.257812 7.671875 -7.90625 C 7.722656 -7.550781 7.773438 -7.195312 7.828125 -6.84375 C 8.128906 -6.945312 8.613281 -7.109375 9.28125 -7.328125 C 9.957031 -7.554688 10.660156 -7.785156 11.390625 -8.015625 C 12.128906 -8.242188 12.84375 -8.441406 13.53125 -8.609375 C 14.21875 -8.773438 14.722656 -8.859375 15.046875 -8.859375 C 15.429688 -8.859375 15.785156 -8.773438 16.109375 -8.609375 C 16.441406 -8.441406 16.722656 -8.222656 16.953125 -7.953125 C 17.179688 -7.691406 17.363281 -7.382812 17.5 -7.03125 C 17.644531 -6.675781 17.71875 -6.320312 17.71875 -5.96875 Z M 17.71875 -5.96875 "/></g></g></g><g fill="#ffffff" fill-opacity="1"><g transform="translate(29.001715, 46.121613)"><g><path d="M 18.8125 -17.671875 C 18.613281 -15.828125 18.410156 -13.988281 18.203125 -12.15625 C 18.003906 -10.332031 17.863281 -8.507812 17.78125 -6.6875 C 17.65625 -4.582031 17.601562 -2.59375 17.625 -0.71875 C 17.65625 1.15625 17.671875 3.144531 17.671875 5.25 C 17.671875 5.75 17.664062 6.363281 17.65625 7.09375 C 17.644531 7.832031 17.550781 8.546875 17.375 9.234375 C 17.195312 9.921875 16.910156 10.503906 16.515625 10.984375 C 16.117188 11.460938 15.53125 11.703125 14.75 11.703125 C 14.363281 11.703125 14.035156 11.585938 13.765625 11.359375 C 13.503906 11.128906 13.28125 10.832031 13.09375 10.46875 C 12.90625 10.101562 12.753906 9.691406 12.640625 9.234375 C 12.523438 8.773438 12.429688 8.304688 12.359375 7.828125 C 12.222656 6.835938 12.148438 5.851562 12.140625 4.875 C 12.128906 3.90625 12.125 3.191406 12.125 2.734375 L 12.125 -2.359375 C 11.539062 -1.597656 10.785156 -1.019531 9.859375 -0.625 C 8.929688 -0.226562 8.015625 -0.03125 7.109375 -0.03125 C 5.960938 -0.03125 4.976562 -0.300781 4.15625 -0.84375 C 3.332031 -1.394531 2.65625 -2.09375 2.125 -2.9375 C 1.59375 -3.789062 1.195312 -4.722656 0.9375 -5.734375 C 0.6875 -6.753906 0.5625 -7.742188 0.5625 -8.703125 L 0.5625 -8.9375 C 0.5625 -10.25 0.765625 -11.671875 1.171875 -13.203125 C 1.578125 -14.742188 2.179688 -16.171875 2.984375 -17.484375 C 3.785156 -18.804688 4.785156 -19.898438 5.984375 -20.765625 C 7.191406 -21.640625 8.59375 -22.078125 10.1875 -22.078125 C 11.050781 -22.078125 11.84375 -21.898438 12.5625 -21.546875 C 13.28125 -21.191406 13.796875 -20.609375 14.109375 -19.796875 C 14.304688 -20.378906 14.613281 -20.851562 15.03125 -21.21875 C 15.445312 -21.59375 15.984375 -21.78125 16.640625 -21.78125 C 17.484375 -21.78125 18.070312 -21.503906 18.40625 -20.953125 C 18.75 -20.410156 18.921875 -19.8125 18.921875 -19.15625 C 18.921875 -18.875 18.910156 -18.617188 18.890625 -18.390625 C 18.867188 -18.160156 18.84375 -17.921875 18.8125 -17.671875 Z M 10.078125 -16.765625 C 9.492188 -16.765625 8.945312 -16.53125 8.4375 -16.0625 C 7.925781 -15.59375 7.476562 -15.019531 7.09375 -14.34375 C 6.71875 -13.675781 6.421875 -12.960938 6.203125 -12.203125 C 5.992188 -11.441406 5.890625 -10.769531 5.890625 -10.1875 C 5.890625 -9.832031 5.921875 -9.453125 5.984375 -9.046875 C 6.046875 -8.640625 6.144531 -8.25 6.28125 -7.875 C 6.425781 -7.507812 6.617188 -7.207031 6.859375 -6.96875 C 7.097656 -6.726562 7.410156 -6.609375 7.796875 -6.609375 C 8.117188 -6.609375 8.5 -6.691406 8.9375 -6.859375 C 9.382812 -7.023438 9.820312 -7.238281 10.25 -7.5 C 10.6875 -7.769531 11.066406 -8.066406 11.390625 -8.390625 C 11.722656 -8.722656 11.957031 -9.039062 12.09375 -9.34375 C 12.164062 -9.519531 12.226562 -9.785156 12.28125 -10.140625 C 12.332031 -10.503906 12.375 -10.878906 12.40625 -11.265625 C 12.445312 -11.660156 12.476562 -12.046875 12.5 -12.421875 C 12.53125 -12.804688 12.546875 -13.097656 12.546875 -13.296875 C 12.546875 -13.609375 12.472656 -13.957031 12.328125 -14.34375 C 12.191406 -14.738281 12.007812 -15.117188 11.78125 -15.484375 C 11.550781 -15.859375 11.285156 -16.164062 10.984375 -16.40625 C 10.679688 -16.644531 10.378906 -16.765625 10.078125 -16.765625 Z M 10.078125 -16.765625 "/></g></g></g><g fill="#ffffff" fill-opacity="1"><g transform="translate(48.496654, 46.121613)"><g><path d="M 17.78125 -10.875 C 17.78125 -9.476562 17.640625 -8.09375 17.359375 -6.71875 C 17.085938 -5.351562 16.617188 -4.128906 15.953125 -3.046875 C 15.296875 -1.972656 14.414062 -1.109375 13.3125 -0.453125 C 12.21875 0.203125 10.847656 0.53125 9.203125 0.53125 C 7.578125 0.53125 6.21875 0.207031 5.125 -0.4375 C 4.039062 -1.082031 3.175781 -1.9375 2.53125 -3 C 1.882812 -4.0625 1.425781 -5.265625 1.15625 -6.609375 C 0.894531 -7.953125 0.765625 -9.320312 0.765625 -10.71875 C 0.765625 -12.238281 0.941406 -13.742188 1.296875 -15.234375 C 1.367188 -15.640625 1.507812 -16.203125 1.71875 -16.921875 C 1.9375 -17.648438 2.21875 -18.363281 2.5625 -19.0625 C 2.90625 -19.757812 3.296875 -20.359375 3.734375 -20.859375 C 4.179688 -21.367188 4.671875 -21.625 5.203125 -21.625 C 5.710938 -21.625 6.117188 -21.484375 6.421875 -21.203125 C 6.722656 -20.929688 6.960938 -20.582031 7.140625 -20.15625 C 7.316406 -19.738281 7.429688 -19.296875 7.484375 -18.828125 C 7.535156 -18.359375 7.5625 -17.9375 7.5625 -17.5625 C 7.5625 -16.976562 7.515625 -16.40625 7.421875 -15.84375 C 7.335938 -15.289062 7.242188 -14.734375 7.140625 -14.171875 C 7.046875 -13.410156 6.953125 -12.648438 6.859375 -11.890625 C 6.773438 -11.128906 6.734375 -10.367188 6.734375 -9.609375 C 6.734375 -9.234375 6.75 -8.8125 6.78125 -8.34375 C 6.820312 -7.875 6.914062 -7.421875 7.0625 -6.984375 C 7.21875 -6.554688 7.4375 -6.195312 7.71875 -5.90625 C 8 -5.613281 8.390625 -5.46875 8.890625 -5.46875 C 9.546875 -5.46875 10.070312 -5.644531 10.46875 -6 C 10.863281 -6.351562 11.15625 -6.796875 11.34375 -7.328125 C 11.53125 -7.867188 11.648438 -8.441406 11.703125 -9.046875 C 11.753906 -9.648438 11.78125 -10.207031 11.78125 -10.71875 C 11.78125 -11.832031 11.703125 -12.925781 11.546875 -14 C 11.398438 -15.082031 11.265625 -16.179688 11.140625 -17.296875 C 11.109375 -17.421875 11.09375 -17.597656 11.09375 -17.828125 C 11.09375 -18.203125 11.15625 -18.578125 11.28125 -18.953125 C 11.414062 -19.335938 11.59375 -19.679688 11.8125 -19.984375 C 12.039062 -20.296875 12.320312 -20.546875 12.65625 -20.734375 C 12.988281 -20.921875 13.359375 -21.015625 13.765625 -21.015625 C 14.316406 -21.015625 14.804688 -20.816406 15.234375 -20.421875 C 15.671875 -20.035156 16.035156 -19.53125 16.328125 -18.90625 C 16.617188 -18.289062 16.859375 -17.59375 17.046875 -16.8125 C 17.234375 -16.039062 17.382812 -15.28125 17.5 -14.53125 C 17.613281 -13.789062 17.6875 -13.085938 17.71875 -12.421875 C 17.757812 -11.765625 17.78125 -11.25 17.78125 -10.875 Z M 17.78125 -10.875 "/></g></g></g><g fill="#ffffff" fill-opacity="1"><g transform="translate(67.459568, 46.121613)"><g><path d="M 7.40625 -26.53125 C 7.40625 -26.175781 7.3125 -25.859375 7.125 -25.578125 C 6.9375 -25.296875 6.6875 -25.046875 6.375 -24.828125 C 6.070312 -24.617188 5.742188 -24.457031 5.390625 -24.34375 C 5.035156 -24.226562 4.707031 -24.171875 4.40625 -24.171875 C 3.90625 -24.171875 3.460938 -24.296875 3.078125 -24.546875 C 2.703125 -24.804688 2.515625 -25.203125 2.515625 -25.734375 C 2.515625 -26.109375 2.609375 -26.441406 2.796875 -26.734375 C 2.984375 -27.023438 3.21875 -27.265625 3.5 -27.453125 C 3.78125 -27.648438 4.097656 -27.796875 4.453125 -27.890625 C 4.804688 -27.992188 5.144531 -28.046875 5.46875 -28.046875 C 5.957031 -28.046875 6.398438 -27.929688 6.796875 -27.703125 C 7.203125 -27.472656 7.40625 -27.082031 7.40625 -26.53125 Z M 7.71875 -13.609375 C 7.71875 -13.253906 7.71875 -12.878906 7.71875 -12.484375 C 7.71875 -12.085938 7.703125 -11.710938 7.671875 -11.359375 C 7.648438 -10.929688 7.640625 -10.351562 7.640625 -9.625 C 7.640625 -8.90625 7.613281 -8.128906 7.5625 -7.296875 C 7.507812 -6.460938 7.425781 -5.613281 7.3125 -4.75 C 7.195312 -3.882812 7.015625 -3.097656 6.765625 -2.390625 C 6.515625 -1.679688 6.175781 -1.101562 5.75 -0.65625 C 5.332031 -0.21875 4.8125 0.0078125 4.1875 0.03125 C 3.695312 0.0625 3.285156 -0.125 2.953125 -0.53125 C 2.628906 -0.9375 2.359375 -1.460938 2.140625 -2.109375 C 1.929688 -2.753906 1.773438 -3.472656 1.671875 -4.265625 C 1.566406 -5.066406 1.488281 -5.84375 1.4375 -6.59375 C 1.394531 -7.34375 1.375 -8.03125 1.375 -8.65625 C 1.375 -9.289062 1.375 -9.765625 1.375 -10.078125 C 1.375 -10.484375 1.375 -11.054688 1.375 -11.796875 C 1.375 -12.546875 1.394531 -13.351562 1.4375 -14.21875 C 1.488281 -15.082031 1.582031 -15.957031 1.71875 -16.84375 C 1.863281 -17.726562 2.066406 -18.535156 2.328125 -19.265625 C 2.597656 -20.003906 2.945312 -20.597656 3.375 -21.046875 C 3.8125 -21.503906 4.359375 -21.734375 5.015625 -21.734375 C 5.703125 -21.734375 6.222656 -21.390625 6.578125 -20.703125 C 6.929688 -20.023438 7.195312 -19.226562 7.375 -18.3125 C 7.550781 -17.40625 7.648438 -16.5 7.671875 -15.59375 C 7.703125 -14.695312 7.71875 -14.035156 7.71875 -13.609375 Z M 7.71875 -13.609375 "/></g></g></g><g fill="#ffffff" fill-opacity="1"><g transform="translate(76.732015, 46.121613)"><g><path d="M 19.125 -12.546875 C 19.125 -11.804688 19.066406 -10.972656 18.953125 -10.046875 C 18.835938 -9.128906 18.65625 -8.1875 18.40625 -7.21875 C 18.164062 -6.257812 17.847656 -5.320312 17.453125 -4.40625 C 17.066406 -3.5 16.585938 -2.679688 16.015625 -1.953125 C 15.453125 -1.234375 14.796875 -0.65625 14.046875 -0.21875 C 13.296875 0.207031 12.425781 0.421875 11.4375 0.421875 C 10.394531 0.421875 9.445312 0.179688 8.59375 -0.296875 C 7.75 -0.785156 7.023438 -1.445312 6.421875 -2.28125 C 6.347656 -1.59375 6.066406 -0.988281 5.578125 -0.46875 C 5.097656 0.0390625 4.492188 0.296875 3.765625 0.296875 C 3.328125 0.296875 2.960938 0.0820312 2.671875 -0.34375 C 2.390625 -0.769531 2.15625 -1.316406 1.96875 -1.984375 C 1.789062 -2.660156 1.65625 -3.40625 1.5625 -4.21875 C 1.476562 -5.03125 1.425781 -5.816406 1.40625 -6.578125 C 1.382812 -7.335938 1.375 -8.019531 1.375 -8.625 C 1.375 -9.238281 1.375 -9.671875 1.375 -9.921875 C 1.375 -10.785156 1.378906 -11.644531 1.390625 -12.5 C 1.398438 -13.363281 1.414062 -14.238281 1.4375 -15.125 C 1.4375 -15.5625 1.429688 -16.207031 1.421875 -17.0625 C 1.410156 -17.925781 1.414062 -18.882812 1.4375 -19.9375 C 1.46875 -20.988281 1.523438 -22.0625 1.609375 -23.15625 C 1.703125 -24.257812 1.863281 -25.269531 2.09375 -26.1875 C 2.320312 -27.101562 2.640625 -27.851562 3.046875 -28.4375 C 3.453125 -29.019531 3.96875 -29.320312 4.59375 -29.34375 C 5.101562 -29.34375 5.535156 -29.164062 5.890625 -28.8125 C 6.242188 -28.457031 6.539062 -27.988281 6.78125 -27.40625 C 7.019531 -26.820312 7.207031 -26.164062 7.34375 -25.4375 C 7.488281 -24.71875 7.59375 -24 7.65625 -23.28125 C 7.71875 -22.5625 7.753906 -21.878906 7.765625 -21.234375 C 7.785156 -20.585938 7.796875 -20.0625 7.796875 -19.65625 C 7.796875 -19.570312 7.785156 -19.394531 7.765625 -19.125 C 7.753906 -18.863281 7.75 -18.582031 7.75 -18.28125 C 7.75 -17.976562 7.75 -17.707031 7.75 -17.46875 C 7.75 -17.226562 7.75 -17.09375 7.75 -17.0625 C 7.976562 -17.539062 8.304688 -18.007812 8.734375 -18.46875 C 9.171875 -18.925781 9.65625 -19.332031 10.1875 -19.6875 C 10.71875 -20.039062 11.273438 -20.332031 11.859375 -20.5625 C 12.441406 -20.789062 13 -20.90625 13.53125 -20.90625 C 14.59375 -20.90625 15.484375 -20.628906 16.203125 -20.078125 C 16.929688 -19.535156 17.507812 -18.847656 17.9375 -18.015625 C 18.375 -17.179688 18.679688 -16.273438 18.859375 -15.296875 C 19.035156 -14.316406 19.125 -13.398438 19.125 -12.546875 Z M 13.53125 -11.40625 C 13.53125 -11.707031 13.507812 -12.035156 13.46875 -12.390625 C 13.4375 -12.742188 13.347656 -13.070312 13.203125 -13.375 C 13.066406 -13.675781 12.878906 -13.925781 12.640625 -14.125 C 12.398438 -14.332031 12.085938 -14.4375 11.703125 -14.4375 C 11.296875 -14.4375 10.894531 -14.347656 10.5 -14.171875 C 10.113281 -13.992188 9.742188 -13.765625 9.390625 -13.484375 C 9.035156 -13.210938 8.703125 -12.914062 8.390625 -12.59375 C 8.085938 -12.28125 7.828125 -11.972656 7.609375 -11.671875 L 7.21875 -8.28125 C 7.625 -7.695312 8.117188 -7.234375 8.703125 -6.890625 C 9.285156 -6.554688 9.945312 -6.390625 10.6875 -6.390625 C 11.238281 -6.390625 11.695312 -6.566406 12.0625 -6.921875 C 12.4375 -7.273438 12.726562 -7.710938 12.9375 -8.234375 C 13.15625 -8.753906 13.304688 -9.300781 13.390625 -9.875 C 13.484375 -10.457031 13.53125 -10.96875 13.53125 -11.40625 Z M 13.53125 -11.40625 "/></g></g></g><g fill="#ffffff" fill-opacity="1"><g transform="translate(97.024994, 46.121613)"><g><path d="M 8.359375 1.109375 C 7.066406 1.109375 5.9375 0.765625 4.96875 0.078125 C 4.007812 -0.609375 3.203125 -1.484375 2.546875 -2.546875 C 1.890625 -3.609375 1.394531 -4.789062 1.0625 -6.09375 C 0.726562 -7.40625 0.5625 -8.691406 0.5625 -9.953125 C 0.5625 -11.296875 0.726562 -12.679688 1.0625 -14.109375 C 1.394531 -15.546875 1.898438 -16.851562 2.578125 -18.03125 C 3.265625 -19.207031 4.140625 -20.171875 5.203125 -20.921875 C 6.265625 -21.671875 7.535156 -22.046875 9.015625 -22.046875 C 10.429688 -22.046875 11.640625 -21.660156 12.640625 -20.890625 C 13.640625 -20.117188 14.441406 -19.15625 15.046875 -18 C 15.660156 -16.84375 16.09375 -15.578125 16.34375 -14.203125 C 16.59375 -12.835938 16.679688 -11.550781 16.609375 -10.34375 C 16.535156 -9 16.328125 -7.640625 15.984375 -6.265625 C 15.640625 -4.898438 15.140625 -3.671875 14.484375 -2.578125 C 13.828125 -1.492188 12.988281 -0.609375 11.96875 0.078125 C 10.957031 0.765625 9.753906 1.109375 8.359375 1.109375 Z M 8.75 -16.078125 C 8.363281 -16.078125 8.023438 -15.875 7.734375 -15.46875 C 7.441406 -15.0625 7.203125 -14.566406 7.015625 -13.984375 C 6.828125 -13.398438 6.679688 -12.785156 6.578125 -12.140625 C 6.472656 -11.492188 6.421875 -10.929688 6.421875 -10.453125 C 6.421875 -9.847656 6.476562 -9.1875 6.59375 -8.46875 C 6.707031 -7.757812 6.863281 -7.109375 7.0625 -6.515625 C 7.269531 -5.921875 7.519531 -5.425781 7.8125 -5.03125 C 8.101562 -4.644531 8.4375 -4.453125 8.8125 -4.453125 C 9.21875 -4.453125 9.566406 -4.640625 9.859375 -5.015625 C 10.148438 -5.398438 10.382812 -5.878906 10.5625 -6.453125 C 10.738281 -7.035156 10.863281 -7.675781 10.9375 -8.375 C 11.019531 -9.070312 11.0625 -9.726562 11.0625 -10.34375 C 11.0625 -10.894531 11.007812 -11.503906 10.90625 -12.171875 C 10.800781 -12.847656 10.65625 -13.476562 10.46875 -14.0625 C 10.28125 -14.644531 10.039062 -15.125 9.75 -15.5 C 9.457031 -15.882812 9.125 -16.078125 8.75 -16.078125 Z M 8.75 -16.078125 "/></g></g></g><g fill="#ffffff" fill-opacity="1"><g transform="translate(114.429833, 46.121613)"><g><path d="M 17.1875 -19.609375 C 17.1875 -19.203125 17.109375 -18.773438 16.953125 -18.328125 C 16.796875 -17.890625 16.601562 -17.441406 16.375 -16.984375 C 16.15625 -16.535156 15.914062 -16.097656 15.65625 -15.671875 C 15.40625 -15.253906 15.175781 -14.867188 14.96875 -14.515625 C 14.46875 -13.703125 13.96875 -12.878906 13.46875 -12.046875 C 12.976562 -11.210938 12.476562 -10.390625 11.96875 -9.578125 C 12.195312 -9.222656 12.515625 -8.726562 12.921875 -8.09375 C 13.328125 -7.457031 13.722656 -6.789062 14.109375 -6.09375 C 14.503906 -5.40625 14.84375 -4.71875 15.125 -4.03125 C 15.40625 -3.34375 15.546875 -2.757812 15.546875 -2.28125 C 15.546875 -1.820312 15.367188 -1.375 15.015625 -0.9375 C 14.660156 -0.507812 14.226562 -0.296875 13.71875 -0.296875 C 13.1875 -0.296875 12.644531 -0.484375 12.09375 -0.859375 C 11.550781 -1.242188 11.019531 -1.695312 10.5 -2.21875 C 9.988281 -2.738281 9.515625 -3.285156 9.078125 -3.859375 C 8.648438 -4.429688 8.285156 -4.90625 7.984375 -5.28125 C 7.648438 -4.925781 7.222656 -4.441406 6.703125 -3.828125 C 6.179688 -3.222656 5.625 -2.628906 5.03125 -2.046875 C 4.4375 -1.460938 3.847656 -0.960938 3.265625 -0.546875 C 2.679688 -0.128906 2.160156 0.078125 1.703125 0.078125 C 1.171875 0.078125 0.753906 -0.109375 0.453125 -0.484375 C 0.148438 -0.867188 0 -1.316406 0 -1.828125 C 0 -2.328125 0.171875 -2.96875 0.515625 -3.75 C 0.859375 -4.539062 1.265625 -5.351562 1.734375 -6.1875 C 2.203125 -7.03125 2.671875 -7.832031 3.140625 -8.59375 C 3.609375 -9.351562 3.96875 -9.945312 4.21875 -10.375 C 3.96875 -10.832031 3.648438 -11.429688 3.265625 -12.171875 C 2.890625 -12.921875 2.53125 -13.707031 2.1875 -14.53125 C 1.84375 -15.363281 1.550781 -16.175781 1.3125 -16.96875 C 1.070312 -17.769531 0.953125 -18.4375 0.953125 -18.96875 C 0.953125 -19.550781 1.128906 -20.019531 1.484375 -20.375 C 1.835938 -20.726562 2.304688 -20.90625 2.890625 -20.90625 C 3.523438 -20.90625 4.117188 -20.65625 4.671875 -20.15625 C 5.234375 -19.664062 5.753906 -19.070312 6.234375 -18.375 C 6.710938 -17.675781 7.132812 -16.953125 7.5 -16.203125 C 7.875 -15.460938 8.175781 -14.851562 8.40625 -14.375 C 8.707031 -14.820312 9.128906 -15.4375 9.671875 -16.21875 C 10.210938 -17.007812 10.828125 -17.785156 11.515625 -18.546875 C 12.203125 -19.304688 12.910156 -19.960938 13.640625 -20.515625 C 14.378906 -21.078125 15.078125 -21.359375 15.734375 -21.359375 C 16.160156 -21.359375 16.507812 -21.175781 16.78125 -20.8125 C 17.050781 -20.445312 17.1875 -20.046875 17.1875 -19.609375 Z M 17.1875 -19.609375 "/></g></g></g></svg>