<svg xmlns="http://www.w3.org/2000/svg" xmlns:xlink="http://www.w3.org/1999/xlink" width="127" zoomAndPan="magnify" viewBox="0 0 95.25 44.999999" height="60" preserveAspectRatio="xMidYMid meet" version="1.0"><defs><g/></defs><g fill="#111827" fill-opacity="1"><g transform="translate(6.842614, 30.770607)"><g><path d="M 11.75 -3.953125 C 11.75 -3.640625 11.664062 -3.332031 11.5 -3.03125 C 11.332031 -2.738281 10.9375 -2.398438 10.3125 -2.015625 C 9.6875 -1.628906 8.992188 -1.265625 8.234375 -0.921875 C 7.484375 -0.578125 6.753906 -0.28125 6.046875 -0.03125 C 5.335938 0.207031 4.816406 0.328125 4.484375 0.328125 C 4.253906 0.328125 3.976562 0.269531 3.65625 0.15625 C 3.332031 0.0507812 3.007812 -0.0820312 2.6875 -0.25 C 2.375 -0.414062 2.085938 -0.609375 1.828125 -0.828125 C 1.566406 -1.046875 1.378906 -1.257812 1.265625 -1.46875 C 1.191406 -1.582031 1.125 -1.816406 1.0625 -2.171875 C 1.007812 -2.523438 0.960938 -2.9375 0.921875 -3.40625 C 0.878906 -3.875 0.835938 -4.375 0.796875 -4.90625 C 0.765625 -5.4375 0.738281 -5.941406 0.71875 -6.421875 C 0.695312 -6.898438 0.679688 -7.320312 0.671875 -7.6875 C 0.660156 -8.0625 0.65625 -8.332031 0.65625 -8.5 C 0.65625 -9.113281 0.675781 -9.820312 0.71875 -10.625 C 0.757812 -11.4375 0.835938 -12.25 0.953125 -13.0625 C 1.078125 -13.882812 1.25 -14.664062 1.46875 -15.40625 C 1.695312 -16.15625 2.003906 -16.789062 2.390625 -17.3125 C 2.515625 -17.46875 2.75 -17.628906 3.09375 -17.796875 C 3.445312 -17.960938 3.863281 -18.117188 4.34375 -18.265625 C 4.820312 -18.421875 5.335938 -18.566406 5.890625 -18.703125 C 6.453125 -18.835938 6.988281 -18.953125 7.5 -19.046875 C 8.007812 -19.140625 8.472656 -19.210938 8.890625 -19.265625 C 9.316406 -19.328125 9.640625 -19.359375 9.859375 -19.359375 C 10.109375 -19.359375 10.347656 -19.300781 10.578125 -19.1875 C 10.804688 -19.082031 11 -18.9375 11.15625 -18.75 C 11.3125 -18.570312 11.4375 -18.367188 11.53125 -18.140625 C 11.625 -17.910156 11.671875 -17.671875 11.671875 -17.421875 C 11.671875 -17.203125 11.640625 -17.015625 11.578125 -16.859375 C 11.523438 -16.710938 11.4375 -16.546875 11.3125 -16.359375 C 11.144531 -16.140625 10.789062 -15.878906 10.25 -15.578125 C 9.71875 -15.273438 9.132812 -14.976562 8.5 -14.6875 C 7.875 -14.394531 7.269531 -14.128906 6.6875 -13.890625 C 6.113281 -13.648438 5.707031 -13.484375 5.46875 -13.390625 C 5.40625 -13.003906 5.332031 -12.613281 5.25 -12.21875 C 5.175781 -11.820312 5.125 -11.421875 5.09375 -11.015625 C 5.613281 -11.285156 6.203125 -11.535156 6.859375 -11.765625 C 7.515625 -12.003906 8.132812 -12.125 8.71875 -12.125 C 9.914062 -12.125 10.515625 -11.535156 10.515625 -10.359375 C 10.515625 -10.078125 10.457031 -9.828125 10.34375 -9.609375 C 10.238281 -9.390625 10.097656 -9.191406 9.921875 -9.015625 C 9.742188 -8.847656 9.539062 -8.703125 9.3125 -8.578125 C 9.082031 -8.453125 8.859375 -8.332031 8.640625 -8.21875 C 8.109375 -7.9375 7.546875 -7.6875 6.953125 -7.46875 C 6.367188 -7.257812 5.78125 -7.054688 5.1875 -6.859375 C 5.15625 -6.722656 5.125 -6.570312 5.09375 -6.40625 C 5.0625 -6.25 5.046875 -6.097656 5.046875 -5.953125 C 5.046875 -5.710938 5.0625 -5.472656 5.09375 -5.234375 C 5.125 -5.003906 5.15625 -4.769531 5.1875 -4.53125 C 5.394531 -4.601562 5.71875 -4.710938 6.15625 -4.859375 C 6.601562 -5.015625 7.070312 -5.164062 7.5625 -5.3125 C 8.050781 -5.46875 8.519531 -5.597656 8.96875 -5.703125 C 9.425781 -5.816406 9.765625 -5.875 9.984375 -5.875 C 10.234375 -5.875 10.46875 -5.816406 10.6875 -5.703125 C 10.90625 -5.597656 11.085938 -5.457031 11.234375 -5.28125 C 11.390625 -5.101562 11.515625 -4.894531 11.609375 -4.65625 C 11.703125 -4.425781 11.75 -4.191406 11.75 -3.953125 Z M 11.75 -3.953125 "/></g></g></g><g fill="#111827" fill-opacity="1"><g transform="translate(18.967931, 30.770607)"><g><path d="M 12.484375 -11.71875 C 12.347656 -10.488281 12.210938 -9.269531 12.078125 -8.0625 C 11.941406 -6.851562 11.847656 -5.644531 11.796875 -4.4375 C 11.710938 -3.039062 11.675781 -1.71875 11.6875 -0.46875 C 11.707031 0.769531 11.71875 2.085938 11.71875 3.484375 C 11.71875 3.816406 11.710938 4.222656 11.703125 4.703125 C 11.703125 5.191406 11.640625 5.664062 11.515625 6.125 C 11.398438 6.582031 11.210938 6.96875 10.953125 7.28125 C 10.691406 7.601562 10.300781 7.765625 9.78125 7.765625 C 9.53125 7.765625 9.316406 7.6875 9.140625 7.53125 C 8.960938 7.382812 8.8125 7.1875 8.6875 6.9375 C 8.5625 6.695312 8.457031 6.425781 8.375 6.125 C 8.300781 5.820312 8.238281 5.507812 8.1875 5.1875 C 8.101562 4.53125 8.054688 3.878906 8.046875 3.234375 C 8.046875 2.585938 8.046875 2.113281 8.046875 1.8125 L 8.046875 -1.5625 C 7.660156 -1.0625 7.160156 -0.679688 6.546875 -0.421875 C 5.929688 -0.160156 5.320312 -0.03125 4.71875 -0.03125 C 3.957031 -0.03125 3.300781 -0.207031 2.75 -0.5625 C 2.207031 -0.925781 1.757812 -1.390625 1.40625 -1.953125 C 1.050781 -2.515625 0.789062 -3.128906 0.625 -3.796875 C 0.457031 -4.472656 0.375 -5.128906 0.375 -5.765625 L 0.375 -5.921875 C 0.375 -6.796875 0.507812 -7.738281 0.78125 -8.75 C 1.050781 -9.769531 1.445312 -10.71875 1.96875 -11.59375 C 2.5 -12.46875 3.164062 -13.191406 3.96875 -13.765625 C 4.769531 -14.347656 5.695312 -14.640625 6.75 -14.640625 C 7.320312 -14.640625 7.847656 -14.519531 8.328125 -14.28125 C 8.804688 -14.050781 9.148438 -13.671875 9.359375 -13.140625 C 9.484375 -13.523438 9.6875 -13.835938 9.96875 -14.078125 C 10.25 -14.316406 10.609375 -14.4375 11.046875 -14.4375 C 11.597656 -14.4375 11.984375 -14.253906 12.203125 -13.890625 C 12.429688 -13.535156 12.546875 -13.140625 12.546875 -12.703125 C 12.546875 -12.515625 12.535156 -12.34375 12.515625 -12.1875 C 12.503906 -12.039062 12.492188 -11.882812 12.484375 -11.71875 Z M 6.6875 -11.109375 C 6.289062 -11.109375 5.925781 -10.953125 5.59375 -10.640625 C 5.257812 -10.335938 4.960938 -9.960938 4.703125 -9.515625 C 4.453125 -9.066406 4.253906 -8.585938 4.109375 -8.078125 C 3.972656 -7.578125 3.90625 -7.132812 3.90625 -6.75 C 3.90625 -6.519531 3.925781 -6.269531 3.96875 -6 C 4.007812 -5.726562 4.078125 -5.46875 4.171875 -5.21875 C 4.265625 -4.976562 4.390625 -4.78125 4.546875 -4.625 C 4.710938 -4.46875 4.921875 -4.390625 5.171875 -4.390625 C 5.390625 -4.390625 5.644531 -4.441406 5.9375 -4.546875 C 6.226562 -4.660156 6.515625 -4.804688 6.796875 -4.984375 C 7.085938 -5.160156 7.34375 -5.359375 7.5625 -5.578125 C 7.78125 -5.796875 7.929688 -6.003906 8.015625 -6.203125 C 8.066406 -6.316406 8.109375 -6.488281 8.140625 -6.71875 C 8.171875 -6.957031 8.195312 -7.207031 8.21875 -7.46875 C 8.25 -7.726562 8.269531 -7.984375 8.28125 -8.234375 C 8.300781 -8.492188 8.3125 -8.691406 8.3125 -8.828125 C 8.3125 -9.023438 8.265625 -9.253906 8.171875 -9.515625 C 8.085938 -9.773438 7.96875 -10.023438 7.8125 -10.265625 C 7.664062 -10.515625 7.488281 -10.71875 7.28125 -10.875 C 7.082031 -11.03125 6.882812 -11.109375 6.6875 -11.109375 Z M 6.6875 -11.109375 "/></g></g></g><g fill="#111827" fill-opacity="1"><g transform="translate(31.899921, 30.770607)"><g><path d="M 11.796875 -7.203125 C 11.796875 -6.285156 11.703125 -5.367188 11.515625 -4.453125 C 11.335938 -3.546875 11.03125 -2.734375 10.59375 -2.015625 C 10.15625 -1.304688 9.566406 -0.734375 8.828125 -0.296875 C 8.097656 0.140625 7.1875 0.359375 6.09375 0.359375 C 5.019531 0.359375 4.117188 0.144531 3.390625 -0.28125 C 2.671875 -0.71875 2.097656 -1.285156 1.671875 -1.984375 C 1.242188 -2.691406 0.941406 -3.488281 0.765625 -4.375 C 0.585938 -5.269531 0.5 -6.179688 0.5 -7.109375 C 0.5 -8.117188 0.617188 -9.117188 0.859375 -10.109375 C 0.910156 -10.378906 1.003906 -10.753906 1.140625 -11.234375 C 1.285156 -11.710938 1.472656 -12.179688 1.703125 -12.640625 C 1.929688 -13.097656 2.191406 -13.492188 2.484375 -13.828125 C 2.773438 -14.171875 3.097656 -14.34375 3.453125 -14.34375 C 3.785156 -14.34375 4.050781 -14.25 4.25 -14.0625 C 4.457031 -13.875 4.617188 -13.640625 4.734375 -13.359375 C 4.859375 -13.085938 4.9375 -12.796875 4.96875 -12.484375 C 5 -12.179688 5.015625 -11.898438 5.015625 -11.640625 C 5.015625 -11.253906 4.984375 -10.875 4.921875 -10.5 C 4.867188 -10.132812 4.804688 -9.769531 4.734375 -9.40625 C 4.671875 -8.894531 4.609375 -8.390625 4.546875 -7.890625 C 4.492188 -7.390625 4.46875 -6.882812 4.46875 -6.375 C 4.46875 -6.125 4.476562 -5.84375 4.5 -5.53125 C 4.519531 -5.21875 4.582031 -4.914062 4.6875 -4.625 C 4.789062 -4.34375 4.929688 -4.101562 5.109375 -3.90625 C 5.296875 -3.71875 5.5625 -3.625 5.90625 -3.625 C 6.332031 -3.625 6.675781 -3.738281 6.9375 -3.96875 C 7.195312 -4.207031 7.390625 -4.503906 7.515625 -4.859375 C 7.648438 -5.210938 7.734375 -5.59375 7.765625 -6 C 7.796875 -6.40625 7.8125 -6.773438 7.8125 -7.109375 C 7.8125 -7.847656 7.757812 -8.570312 7.65625 -9.28125 C 7.5625 -10 7.472656 -10.726562 7.390625 -11.46875 C 7.367188 -11.550781 7.359375 -11.671875 7.359375 -11.828125 C 7.359375 -12.078125 7.398438 -12.328125 7.484375 -12.578125 C 7.566406 -12.828125 7.679688 -13.050781 7.828125 -13.25 C 7.984375 -13.457031 8.171875 -13.625 8.390625 -13.75 C 8.609375 -13.875 8.851562 -13.9375 9.125 -13.9375 C 9.5 -13.9375 9.828125 -13.804688 10.109375 -13.546875 C 10.390625 -13.285156 10.625 -12.945312 10.8125 -12.53125 C 11.007812 -12.125 11.171875 -11.664062 11.296875 -11.15625 C 11.429688 -10.644531 11.535156 -10.140625 11.609375 -9.640625 C 11.679688 -9.140625 11.726562 -8.671875 11.75 -8.234375 C 11.78125 -7.804688 11.796875 -7.460938 11.796875 -7.203125 Z M 11.796875 -7.203125 "/></g></g></g><g fill="#111827" fill-opacity="1"><g transform="translate(44.478992, 30.770607)"><g><path d="M 4.921875 -17.59375 C 4.921875 -17.351562 4.851562 -17.140625 4.71875 -16.953125 C 4.59375 -16.773438 4.429688 -16.613281 4.234375 -16.46875 C 4.035156 -16.332031 3.816406 -16.222656 3.578125 -16.140625 C 3.347656 -16.066406 3.128906 -16.03125 2.921875 -16.03125 C 2.585938 -16.03125 2.289062 -16.113281 2.03125 -16.28125 C 1.78125 -16.445312 1.65625 -16.707031 1.65625 -17.0625 C 1.65625 -17.3125 1.71875 -17.53125 1.84375 -17.71875 C 1.976562 -17.914062 2.132812 -18.078125 2.3125 -18.203125 C 2.5 -18.335938 2.707031 -18.4375 2.9375 -18.5 C 3.175781 -18.570312 3.40625 -18.609375 3.625 -18.609375 C 3.945312 -18.609375 4.242188 -18.53125 4.515625 -18.375 C 4.785156 -18.226562 4.921875 -17.96875 4.921875 -17.59375 Z M 5.109375 -9.03125 C 5.109375 -8.789062 5.109375 -8.539062 5.109375 -8.28125 C 5.109375 -8.019531 5.101562 -7.769531 5.09375 -7.53125 C 5.070312 -7.25 5.0625 -6.867188 5.0625 -6.390625 C 5.0625 -5.910156 5.046875 -5.394531 5.015625 -4.84375 C 4.984375 -4.289062 4.925781 -3.726562 4.84375 -3.15625 C 4.769531 -2.582031 4.648438 -2.054688 4.484375 -1.578125 C 4.316406 -1.109375 4.09375 -0.726562 3.8125 -0.4375 C 3.539062 -0.144531 3.191406 0.0078125 2.765625 0.03125 C 2.453125 0.0390625 2.1875 -0.0820312 1.96875 -0.34375 C 1.75 -0.613281 1.566406 -0.960938 1.421875 -1.390625 C 1.273438 -1.828125 1.171875 -2.304688 1.109375 -2.828125 C 1.046875 -3.359375 0.992188 -3.867188 0.953125 -4.359375 C 0.921875 -4.859375 0.90625 -5.316406 0.90625 -5.734375 C 0.90625 -6.160156 0.90625 -6.476562 0.90625 -6.6875 C 0.90625 -6.945312 0.90625 -7.328125 0.90625 -7.828125 C 0.90625 -8.328125 0.921875 -8.859375 0.953125 -9.421875 C 0.992188 -9.992188 1.054688 -10.570312 1.140625 -11.15625 C 1.234375 -11.75 1.367188 -12.289062 1.546875 -12.78125 C 1.722656 -13.269531 1.953125 -13.664062 2.234375 -13.96875 C 2.523438 -14.269531 2.890625 -14.421875 3.328125 -14.421875 C 3.785156 -14.421875 4.128906 -14.191406 4.359375 -13.734375 C 4.597656 -13.285156 4.773438 -12.757812 4.890625 -12.15625 C 5.003906 -11.550781 5.066406 -10.945312 5.078125 -10.34375 C 5.097656 -9.75 5.109375 -9.3125 5.109375 -9.03125 Z M 5.109375 -9.03125 "/></g></g></g><g fill="#111827" fill-opacity="1"><g transform="translate(50.62988, 30.770607)"><g><path d="M 12.671875 -8.3125 C 12.671875 -7.832031 12.632812 -7.285156 12.5625 -6.671875 C 12.488281 -6.054688 12.367188 -5.425781 12.203125 -4.78125 C 12.046875 -4.144531 11.835938 -3.523438 11.578125 -2.921875 C 11.316406 -2.316406 11 -1.773438 10.625 -1.296875 C 10.25 -0.816406 9.8125 -0.429688 9.3125 -0.140625 C 8.820312 0.140625 8.25 0.28125 7.59375 0.28125 C 6.894531 0.28125 6.265625 0.117188 5.703125 -0.203125 C 5.140625 -0.523438 4.660156 -0.960938 4.265625 -1.515625 C 4.210938 -1.054688 4.023438 -0.65625 3.703125 -0.3125 C 3.390625 0.03125 2.988281 0.203125 2.5 0.203125 C 2.207031 0.203125 1.960938 0.0625 1.765625 -0.21875 C 1.578125 -0.507812 1.425781 -0.875 1.3125 -1.3125 C 1.195312 -1.757812 1.109375 -2.253906 1.046875 -2.796875 C 0.984375 -3.335938 0.941406 -3.859375 0.921875 -4.359375 C 0.910156 -4.859375 0.90625 -5.3125 0.90625 -5.71875 C 0.90625 -6.125 0.90625 -6.410156 0.90625 -6.578125 C 0.90625 -7.148438 0.910156 -7.722656 0.921875 -8.296875 C 0.929688 -8.867188 0.941406 -9.445312 0.953125 -10.03125 C 0.953125 -10.320312 0.945312 -10.75 0.9375 -11.3125 C 0.9375 -11.882812 0.941406 -12.519531 0.953125 -13.21875 C 0.972656 -13.914062 1.007812 -14.628906 1.0625 -15.359375 C 1.125 -16.085938 1.226562 -16.753906 1.375 -17.359375 C 1.53125 -17.972656 1.742188 -18.472656 2.015625 -18.859375 C 2.285156 -19.242188 2.628906 -19.441406 3.046875 -19.453125 C 3.378906 -19.453125 3.664062 -19.332031 3.90625 -19.09375 C 4.144531 -18.863281 4.34375 -18.554688 4.5 -18.171875 C 4.65625 -17.785156 4.78125 -17.351562 4.875 -16.875 C 4.96875 -16.394531 5.035156 -15.914062 5.078125 -15.4375 C 5.117188 -14.957031 5.144531 -14.503906 5.15625 -14.078125 C 5.164062 -13.648438 5.171875 -13.300781 5.171875 -13.03125 C 5.171875 -12.976562 5.164062 -12.863281 5.15625 -12.6875 C 5.144531 -12.507812 5.140625 -12.320312 5.140625 -12.125 C 5.140625 -11.925781 5.140625 -11.742188 5.140625 -11.578125 C 5.140625 -11.421875 5.140625 -11.332031 5.140625 -11.3125 C 5.296875 -11.632812 5.515625 -11.945312 5.796875 -12.25 C 6.078125 -12.550781 6.394531 -12.816406 6.75 -13.046875 C 7.101562 -13.285156 7.472656 -13.476562 7.859375 -13.625 C 8.242188 -13.78125 8.613281 -13.859375 8.96875 -13.859375 C 9.675781 -13.859375 10.269531 -13.675781 10.75 -13.3125 C 11.226562 -12.957031 11.609375 -12.5 11.890625 -11.9375 C 12.179688 -11.382812 12.382812 -10.785156 12.5 -10.140625 C 12.613281 -9.492188 12.671875 -8.882812 12.671875 -8.3125 Z M 8.96875 -7.5625 C 8.96875 -7.757812 8.953125 -7.976562 8.921875 -8.21875 C 8.898438 -8.457031 8.84375 -8.675781 8.75 -8.875 C 8.664062 -9.070312 8.539062 -9.238281 8.375 -9.375 C 8.21875 -9.507812 8.015625 -9.578125 7.765625 -9.578125 C 7.492188 -9.578125 7.226562 -9.515625 6.96875 -9.390625 C 6.707031 -9.273438 6.457031 -9.125 6.21875 -8.9375 C 5.988281 -8.757812 5.769531 -8.566406 5.5625 -8.359375 C 5.363281 -8.148438 5.191406 -7.941406 5.046875 -7.734375 L 4.796875 -5.5 C 5.054688 -5.113281 5.378906 -4.804688 5.765625 -4.578125 C 6.160156 -4.347656 6.597656 -4.234375 7.078125 -4.234375 C 7.453125 -4.234375 7.757812 -4.347656 8 -4.578125 C 8.25 -4.816406 8.441406 -5.109375 8.578125 -5.453125 C 8.722656 -5.796875 8.820312 -6.160156 8.875 -6.546875 C 8.9375 -6.941406 8.96875 -7.28125 8.96875 -7.5625 Z M 8.96875 -7.5625 "/></g></g></g><g fill="#111827" fill-opacity="1"><g transform="translate(64.091251, 30.770607)"><g><path d="M 5.546875 0.734375 C 4.691406 0.734375 3.941406 0.503906 3.296875 0.046875 C 2.660156 -0.398438 2.125 -0.976562 1.6875 -1.6875 C 1.25 -2.394531 0.921875 -3.179688 0.703125 -4.046875 C 0.484375 -4.910156 0.375 -5.765625 0.375 -6.609375 C 0.375 -7.492188 0.484375 -8.410156 0.703125 -9.359375 C 0.921875 -10.304688 1.253906 -11.171875 1.703125 -11.953125 C 2.160156 -12.742188 2.742188 -13.382812 3.453125 -13.875 C 4.160156 -14.375 5 -14.625 5.96875 -14.625 C 6.914062 -14.625 7.71875 -14.363281 8.375 -13.84375 C 9.039062 -13.332031 9.578125 -12.691406 9.984375 -11.921875 C 10.390625 -11.160156 10.675781 -10.328125 10.84375 -9.421875 C 11.007812 -8.515625 11.066406 -7.660156 11.015625 -6.859375 C 10.960938 -5.960938 10.820312 -5.0625 10.59375 -4.15625 C 10.375 -3.25 10.046875 -2.429688 9.609375 -1.703125 C 9.171875 -0.984375 8.613281 -0.398438 7.9375 0.046875 C 7.269531 0.503906 6.472656 0.734375 5.546875 0.734375 Z M 5.796875 -10.65625 C 5.546875 -10.65625 5.320312 -10.519531 5.125 -10.25 C 4.9375 -9.988281 4.78125 -9.664062 4.65625 -9.28125 C 4.53125 -8.894531 4.429688 -8.484375 4.359375 -8.046875 C 4.296875 -7.617188 4.265625 -7.25 4.265625 -6.9375 C 4.265625 -6.53125 4.300781 -6.09375 4.375 -5.625 C 4.445312 -5.15625 4.550781 -4.722656 4.6875 -4.328125 C 4.820312 -3.929688 4.984375 -3.601562 5.171875 -3.34375 C 5.367188 -3.082031 5.59375 -2.953125 5.84375 -2.953125 C 6.113281 -2.953125 6.34375 -3.078125 6.53125 -3.328125 C 6.726562 -3.578125 6.882812 -3.894531 7 -4.28125 C 7.125 -4.664062 7.207031 -5.085938 7.25 -5.546875 C 7.300781 -6.015625 7.328125 -6.453125 7.328125 -6.859375 C 7.328125 -7.222656 7.296875 -7.628906 7.234375 -8.078125 C 7.171875 -8.523438 7.070312 -8.941406 6.9375 -9.328125 C 6.8125 -9.710938 6.648438 -10.03125 6.453125 -10.28125 C 6.265625 -10.53125 6.046875 -10.65625 5.796875 -10.65625 Z M 5.796875 -10.65625 "/></g></g></g><g fill="#111827" fill-opacity="1"><g transform="translate(75.63677, 30.770607)"><g><path d="M 11.390625 -13 C 11.390625 -12.738281 11.335938 -12.457031 11.234375 -12.15625 C 11.140625 -11.863281 11.015625 -11.566406 10.859375 -11.265625 C 10.710938 -10.960938 10.554688 -10.671875 10.390625 -10.390625 C 10.222656 -10.117188 10.070312 -9.863281 9.9375 -9.625 C 9.59375 -9.09375 9.253906 -8.546875 8.921875 -7.984375 C 8.597656 -7.429688 8.269531 -6.890625 7.9375 -6.359375 C 8.09375 -6.117188 8.300781 -5.785156 8.5625 -5.359375 C 8.832031 -4.941406 9.097656 -4.503906 9.359375 -4.046875 C 9.617188 -3.585938 9.84375 -3.128906 10.03125 -2.671875 C 10.21875 -2.210938 10.3125 -1.828125 10.3125 -1.515625 C 10.3125 -1.210938 10.191406 -0.914062 9.953125 -0.625 C 9.722656 -0.34375 9.4375 -0.203125 9.09375 -0.203125 C 8.75 -0.203125 8.394531 -0.328125 8.03125 -0.578125 C 7.664062 -0.828125 7.3125 -1.125 6.96875 -1.46875 C 6.625 -1.8125 6.304688 -2.171875 6.015625 -2.546875 C 5.734375 -2.929688 5.492188 -3.25 5.296875 -3.5 C 5.078125 -3.269531 4.796875 -2.953125 4.453125 -2.546875 C 4.109375 -2.140625 3.738281 -1.742188 3.34375 -1.359375 C 2.945312 -0.972656 2.554688 -0.640625 2.171875 -0.359375 C 1.785156 -0.0859375 1.441406 0.046875 1.140625 0.046875 C 0.785156 0.046875 0.503906 -0.078125 0.296875 -0.328125 C 0.0976562 -0.578125 0 -0.867188 0 -1.203125 C 0 -1.546875 0.113281 -1.976562 0.34375 -2.5 C 0.570312 -3.019531 0.835938 -3.554688 1.140625 -4.109375 C 1.453125 -4.660156 1.765625 -5.1875 2.078125 -5.6875 C 2.390625 -6.195312 2.628906 -6.59375 2.796875 -6.875 C 2.628906 -7.175781 2.421875 -7.578125 2.171875 -8.078125 C 1.921875 -8.578125 1.679688 -9.097656 1.453125 -9.640625 C 1.222656 -10.191406 1.023438 -10.726562 0.859375 -11.25 C 0.703125 -11.78125 0.625 -12.222656 0.625 -12.578125 C 0.625 -12.960938 0.742188 -13.269531 0.984375 -13.5 C 1.222656 -13.738281 1.535156 -13.859375 1.921875 -13.859375 C 2.335938 -13.859375 2.726562 -13.691406 3.09375 -13.359375 C 3.46875 -13.035156 3.8125 -12.644531 4.125 -12.1875 C 4.445312 -11.726562 4.726562 -11.25 4.96875 -10.75 C 5.21875 -10.25 5.421875 -9.84375 5.578125 -9.53125 C 5.773438 -9.832031 6.050781 -10.242188 6.40625 -10.765625 C 6.769531 -11.285156 7.175781 -11.796875 7.625 -12.296875 C 8.082031 -12.804688 8.554688 -13.242188 9.046875 -13.609375 C 9.535156 -13.984375 10 -14.171875 10.4375 -14.171875 C 10.71875 -14.171875 10.945312 -14.046875 11.125 -13.796875 C 11.300781 -13.554688 11.390625 -13.289062 11.390625 -13 Z M 11.390625 -13 "/></g></g></g></svg>